<?xml version="1.0" encoding="UTF-8"?>
<!DOCTYPE svg PUBLIC "-//W3C//DTD SVG 1.1//EN" "http://www.w3.org/Graphics/SVG/1.1/DTD/svg11.dtd">
<svg xmlns="http://www.w3.org/2000/svg" version="1.1" width="64px" height="64px" style="shape-rendering:geometricPrecision; text-rendering:geometricPrecision; image-rendering:optimizeQuality; fill-rule:evenodd; clip-rule:evenodd" xmlns:xlink="http://www.w3.org/1999/xlink">
<g><path style="opacity:0.956" fill="#fecd00" d="M 23.5,-0.5 C 28.8333,-0.5 34.1667,-0.5 39.5,-0.5C 51.8333,3.16667 59.8333,11.1667 63.5,23.5C 63.5,24.8333 63.5,26.1667 63.5,27.5C 60.1667,24.5 56.8333,21.5 53.5,18.5C 50.7131,17.5233 47.7131,17.19 44.5,17.5C 44.7373,16.209 44.404,15.209 43.5,14.5C 43.0844,12.2475 41.751,10.7475 39.5,10C 36.854,9.50258 34.1873,9.33591 31.5,9.5C 28.0217,9.18424 24.6883,9.68424 21.5,11C 19.771,12.7889 19.1043,14.9556 19.5,17.5C 15.6707,16.931 12.3373,17.5977 9.5,19.5C 9.5,28.8333 9.5,38.1667 9.5,47.5C 14.1667,52.5 18.8333,57.5 23.5,62.5C 10.9114,59.5773 2.91142,51.9107 -0.5,39.5C -0.5,34.1667 -0.5,28.8333 -0.5,23.5C 3.16667,11.1667 11.1667,3.16667 23.5,-0.5 Z"/></g>
<g><path style="opacity:1" fill="#454b50" d="M 31.5,9.5 C 31.5,11.1667 31.5,12.8333 31.5,14.5C 29.1432,14.3367 26.8098,14.5034 24.5,15C 23.7476,15.6708 23.4142,16.5041 23.5,17.5C 22.1667,17.5 20.8333,17.5 19.5,17.5C 19.1043,14.9556 19.771,12.7889 21.5,11C 24.6883,9.68424 28.0217,9.18424 31.5,9.5 Z"/></g>
<g><path style="opacity:1" fill="#25282b" d="M 31.5,9.5 C 34.1873,9.33591 36.854,9.50258 39.5,10C 41.751,10.7475 43.0844,12.2475 43.5,14.5C 43.5,15.5 43.5,16.5 43.5,17.5C 41.4458,17.6347 39.7791,16.968 38.5,15.5C 36.3926,14.5318 34.0593,14.1984 31.5,14.5C 31.5,12.8333 31.5,11.1667 31.5,9.5 Z"/></g>
<g><path style="opacity:1" fill="#f9a003" d="M 31.5,14.5 C 34.0593,14.1984 36.3926,14.5318 38.5,15.5C 36.7211,17.3435 34.3878,18.0102 31.5,17.5C 28.8333,17.5 26.1667,17.5 23.5,17.5C 23.4142,16.5041 23.7476,15.6708 24.5,15C 26.8098,14.5034 29.1432,14.3367 31.5,14.5 Z"/></g>
<g><path style="opacity:1" fill="#646875" d="M 19.5,17.5 C 20.8333,17.5 22.1667,17.5 23.5,17.5C 26.1667,17.5 28.8333,17.5 31.5,17.5C 31.5,22.1667 31.5,26.8333 31.5,31.5C 29.5168,31.1568 28.1834,31.8235 27.5,33.5C 23.0329,33.8674 18.6996,33.3674 14.5,32C 12.2958,27.9831 10.6291,23.8164 9.5,19.5C 12.3373,17.5977 15.6707,16.931 19.5,17.5 Z"/></g>
<g><path style="opacity:1" fill="#424951" d="M 43.5,14.5 C 44.404,15.209 44.7373,16.209 44.5,17.5C 47.7131,17.19 50.7131,17.5233 53.5,18.5C 53.5,19.5 53.5,20.5 53.5,21.5C 52.0493,31.9127 46.0493,35.9127 35.5,33.5C 34.8166,31.8235 33.4832,31.1568 31.5,31.5C 31.5,26.8333 31.5,22.1667 31.5,17.5C 34.3878,18.0102 36.7211,17.3435 38.5,15.5C 39.7791,16.968 41.4458,17.6347 43.5,17.5C 43.5,16.5 43.5,15.5 43.5,14.5 Z"/></g>
<g><path style="opacity:1" fill="#fda300" d="M 53.5,18.5 C 56.8333,21.5 60.1667,24.5 63.5,27.5C 63.5,31.5 63.5,35.5 63.5,39.5C 59.8333,51.8333 51.8333,59.8333 39.5,63.5C 34.1667,63.5 28.8333,63.5 23.5,63.5C 23.5,63.1667 23.5,62.8333 23.5,62.5C 18.8333,57.5 14.1667,52.5 9.5,47.5C 16.8333,47.5 24.1667,47.5 31.5,47.5C 38.8333,47.5 46.1667,47.5 53.5,47.5C 53.5,38.8333 53.5,30.1667 53.5,21.5C 53.5,20.5 53.5,19.5 53.5,18.5 Z"/></g>
<g><path style="opacity:1" fill="#414952" d="M 9.5,19.5 C 10.6291,23.8164 12.2958,27.9831 14.5,32C 18.6996,33.3674 23.0329,33.8674 27.5,33.5C 27.5,34.8333 27.5,36.1667 27.5,37.5C 28.8333,37.5 30.1667,37.5 31.5,37.5C 31.5,40.8333 31.5,44.1667 31.5,47.5C 24.1667,47.5 16.8333,47.5 9.5,47.5C 9.5,38.1667 9.5,28.8333 9.5,19.5 Z"/></g>
<g><path style="opacity:1" fill="#23272b" d="M 53.5,21.5 C 53.5,30.1667 53.5,38.8333 53.5,47.5C 46.1667,47.5 38.8333,47.5 31.5,47.5C 31.5,44.1667 31.5,40.8333 31.5,37.5C 32.8333,37.5 34.1667,37.5 35.5,37.5C 35.5,36.1667 35.5,34.8333 35.5,33.5C 46.0493,35.9127 52.0493,31.9127 53.5,21.5 Z"/></g>
<g><path style="opacity:1" fill="#ee7310" d="M 31.5,31.5 C 33.4832,31.1568 34.8166,31.8235 35.5,33.5C 35.5,34.8333 35.5,36.1667 35.5,37.5C 34.1667,37.5 32.8333,37.5 31.5,37.5C 30.1667,37.5 28.8333,37.5 27.5,37.5C 27.5,36.1667 27.5,34.8333 27.5,33.5C 28.1834,31.8235 29.5168,31.1568 31.5,31.5 Z"/></g>
</svg>
