
<svg fill="#000000" height="800px" width="800px" version="1.1" id="Layer_1" xmlns="http://www.w3.org/2000/svg" xmlns:xlink="http://www.w3.org/1999/xlink" 
	 viewBox="0 0 512 512" xml:space="preserve">
<g>
	<g>
		<path d="M10.586,469.167h-0.137C4.678,469.167,0,473.846,0,479.616c0,5.77,4.678,10.449,10.449,10.449h0.137
			c5.77,0,10.449-4.679,10.449-10.449C21.035,473.846,16.356,469.167,10.586,469.167z"/>
	</g>
</g>
<g>
	<g>
		<path d="M501.551,469.167h-34.482v-90.755v-24.184V248.68c0-5.77-4.679-10.449-10.449-10.449c-5.77,0-10.449,4.679-10.449,10.449
			v95.099h-99.488c-5.77,0-10.449,4.679-10.449,10.449v24.184c0,5.77,4.679,10.449,10.449,10.449h10.25v80.306h-56.01
			c-4.476-14.5-18.003-25.065-33.953-25.065h-0.536v-95.621h35.54c5.77,0,10.449-4.679,10.449-10.449v-15.151h80.457
			c5.77,0,10.449-4.679,10.449-10.449v-33.437c0-5.77-4.679-10.449-10.449-10.449H358.91c-5.77,0-10.449,4.679-10.449,10.449
			c0,5.77,4.679,10.449,10.449,10.449h23.523v12.539H129.541v-12.539h162.663c5.77,0,10.449-4.679,10.449-10.449
			c0-5.77-4.679-10.449-10.449-10.449h-25.756V138.964H442.19c4.82,0,9.015-3.298,10.154-7.983c1.138-4.684-1.076-9.54-5.36-11.751
			L260.794,23.1c-3.008-1.553-6.58-1.553-9.588,0L65.016,119.23c-4.284,2.211-6.498,7.067-5.36,11.751
			c1.139,4.684,5.333,7.983,10.154,7.983h175.741v129.582H119.092c-5.77,0-10.449,4.679-10.449,10.449v33.437
			c0,5.77,4.679,10.449,10.449,10.449h80.457v15.151c0,5.77,4.679,10.449,10.449,10.449h35.54v95.621h-0.271
			c-15.95,0-29.477,10.566-33.953,25.065h-56.248v-80.306h10.25c5.77,0,10.449-4.679,10.449-10.449v-24.184
			c0-5.77-4.679-10.449-10.449-10.449H65.829V248.68c0-5.77-4.679-10.449-10.449-10.449c-5.77,0-10.449,4.679-10.449,10.449v105.548
			v24.184v90.755h-0.541c-5.77,0-10.449,4.679-10.449,10.449c0,5.77,4.679,10.449,10.449,10.449h457.162
			c5.77,0,10.449-4.679,10.449-10.449C512,473.846,507.321,469.167,501.551,469.167z M399.176,118.066h-65.354l-41.789-55.318
			L399.176,118.066z M266.449,63.551l41.183,54.516h-41.183V63.551z M112.824,118.066l107.143-55.318l-41.789,55.318H112.824z
			 M204.368,118.067l41.183-54.516v54.516H204.368z M134.168,469.167H65.829v-80.306h68.339V469.167z M154.867,367.963H65.829
			v-3.286h89.039V367.963z M220.447,327.583v-4.627h71.079v4.627H220.447z M235.053,469.167c2.638-2.577,6.244-4.167,10.215-4.167
			h21.704c3.97,0,7.577,1.59,10.215,4.167H235.053z M446.171,469.167h-68.339v-80.306h68.339V469.167z M446.171,367.963h-89.039
			v-3.286h89.039V367.963z"/>
	</g>
</g>
<g>
	<g>
		<path d="M326.145,268.545h-0.137c-5.77,0-10.449,4.679-10.449,10.449c0,5.77,4.679,10.449,10.449,10.449h0.137
			c5.77,0,10.449-4.679,10.449-10.449C336.594,273.224,331.915,268.545,326.145,268.545z"/>
	</g>
</g>
</svg>